<?xml version="1.0" standalone="no"?>
<!DOCTYPE svg PUBLIC "-//W3C//DTD SVG 20010904//EN"
 "http://www.w3.org/TR/2001/REC-SVG-20010904/DTD/svg10.dtd">
<svg version="1.0" xmlns="http://www.w3.org/2000/svg"
 width="512.000000pt" height="512.000000pt" viewBox="0 0 512.000000 512.000000"
 preserveAspectRatio="xMidYMid meet">
<metadata>
Created by potrace 1.14, written by Peter Selinger 2001-2017
</metadata>
<g transform="translate(0.000000,512.000000) scale(0.100000,-0.100000)"
fill="#000000" stroke="none">
<path d="M2437 5104 c-1 -1 -47 -5 -102 -8 -55 -4 -118 -11 -140 -15 -22 -5
-47 -9 -55 -9 -8 0 -26 -3 -40 -7 -14 -3 -34 -8 -45 -9 -102 -17 -201 -44
-345 -94 -131 -45 -223 -84 -228 -94 -2 -5 -10 -8 -17 -8 -16 0 -77 -31 -87
-45 -5 -7 -8 -7 -8 0 0 7 -3 7 -8 0 -4 -5 -27 -20 -52 -32 -68 -35 -111 -60
-137 -83 -13 -11 -29 -21 -35 -23 -7 -1 -24 -12 -38 -25 -14 -12 -33 -25 -42
-28 -10 -3 -18 -10 -18 -15 0 -5 -7 -9 -16 -9 -8 0 -12 -4 -9 -10 3 -5 -1 -10
-9 -10 -8 0 -26 -10 -39 -22 -13 -13 -47 -43 -77 -68 -111 -94 -245 -235 -338
-355 -34 -44 -68 -88 -77 -97 -8 -10 -15 -22 -15 -26 0 -5 -9 -19 -20 -32 -17
-20 -38 -52 -87 -135 -24 -40 -154 -300 -152 -303 5 -8 -26 -72 -35 -72 -5 0
-7 -3 -3 -6 3 -3 -1 -23 -8 -45 -8 -21 -12 -39 -8 -39 3 0 0 -6 -6 -13 -6 -8
-12 -22 -14 -33 -1 -10 -5 -24 -9 -29 -3 -6 -9 -27 -13 -48 -4 -20 -10 -37
-14 -37 -4 0 -7 -10 -6 -22 1 -13 -1 -30 -5 -38 -5 -8 -10 -28 -13 -45 -9 -51
-25 -131 -28 -137 -1 -3 -3 -22 -13 -118 -4 -36 -9 -83 -11 -105 -6 -50 -6
-326 -1 -380 3 -22 7 -67 10 -100 9 -90 15 -128 37 -235 7 -30 12 -61 12 -67
0 -7 4 -13 9 -13 5 0 7 -4 3 -9 -3 -5 1 -29 10 -53 8 -25 16 -53 18 -64 1 -10
5 -23 8 -29 4 -5 9 -22 13 -37 3 -15 11 -40 18 -55 6 -15 12 -30 13 -33 26
-99 211 -467 251 -501 8 -6 14 -17 14 -23 0 -6 18 -33 40 -61 22 -27 40 -53
40 -58 0 -4 8 -15 18 -25 9 -10 31 -35 47 -56 67 -86 195 -219 295 -306 34
-30 68 -61 76 -68 7 -6 18 -12 24 -12 6 0 8 -4 5 -10 -3 -5 0 -10 8 -10 8 0
22 -9 32 -20 10 -11 24 -20 32 -20 7 0 13 -4 13 -8 0 -5 37 -32 83 -61 45 -29
93 -61 107 -70 51 -36 378 -191 402 -191 4 0 19 -5 35 -12 15 -6 30 -12 33
-13 3 -1 39 -12 80 -24 41 -12 82 -25 90 -28 8 -3 24 -8 35 -10 41 -8 50 -10
65 -16 8 -3 22 -6 30 -6 8 0 38 -5 65 -11 207 -45 547 -55 795 -23 19 2 49 6
65 8 17 2 30 4 30 5 0 2 24 7 75 15 25 3 66 12 93 20 26 8 51 14 55 15 13 1
87 21 102 27 8 4 17 7 20 8 203 55 546 226 721 360 15 11 39 29 55 40 15 11
38 29 50 40 13 11 38 31 55 45 48 37 238 226 289 289 25 29 50 59 55 65 25 27
115 157 115 165 0 5 3 11 8 13 10 5 52 66 52 77 0 5 3 11 8 13 4 2 17 21 30
43 27 48 144 286 147 300 1 6 6 21 12 35 48 119 117 351 127 425 3 22 8 51 11
65 11 48 24 135 31 215 18 192 3 556 -26 664 -5 20 -12 54 -16 76 -10 65 -12
80 -14 80 -1 0 -3 7 -5 15 -14 72 -94 322 -106 335 -5 5 -9 17 -9 27 0 10 -5
18 -11 18 -5 0 -8 4 -5 9 7 11 -129 281 -182 361 -23 34 -42 66 -42 70 0 5 -3
10 -7 12 -5 2 -26 29 -48 62 -22 32 -49 68 -60 80 -11 12 -33 40 -50 61 -32
44 -249 262 -306 310 -20 17 -51 41 -69 55 -18 14 -38 30 -45 35 -6 6 -18 15
-27 20 -8 6 -50 34 -92 63 -42 28 -80 52 -85 52 -5 0 -11 4 -13 8 -1 5 -32 24
-68 43 -36 18 -68 37 -71 42 -3 5 -10 9 -15 9 -5 0 -40 14 -79 32 -38 18 -86
40 -105 49 -43 19 -266 94 -300 101 -14 3 -58 14 -98 25 -40 10 -75 19 -77 19
-6 0 -79 12 -110 18 -32 6 -116 16 -170 19 -27 2 -50 4 -50 5 0 2 -286 6 -288
4z"/>
</g>
</svg>
